<svg id="Logo_Final" data-name="Logo Final" xmlns="http://www.w3.org/2000/svg" viewBox="0 0 494.4 537.78"><defs><style>.cls-1{fill:#1d1d1b;}</style></defs><title>Logo StarDICE</title><path class="cls-1" d="M154.59,495.75l85.13-44.1c-.89,2.94-2.71,4.33-4.08,6-4.63,5.5-9.94,10.52-14,16.41-4.56,6.64-11.13,8.71-18.18,10.7-17.41,4.89-34.77,10-51.21,15.34,0-11.27-.29-22.79.06-34.29q1.71-57.16,3.91-114.3a20.5,20.5,0,0,0-4.37-13.85c-19.7-26.64-39.15-53.46-58.67-80.23-11.4-15.63-22.78-31.28-34.34-47.16q14.06-3.58,28-7.15c41.09-10.56,82.16-21.18,123.29-31.56a8.76,8.76,0,0,0,5.69-4.09q43.5-65,87.06-129.88c1-1.55,2-3.12,3.13-4.84q22.8,34,45.46,67.79,22.55,33.62,45.09,67.25a7.69,7.69,0,0,0,4.91,3.56q74,18.9,147.9,38c1.27.33,2.69.13,3.83,1.1q-16.95,23-33.87,45.87c-10.19,13.88-20.27,27.84-30.4,41.76C478.49,312.49,468,327,457.42,341.31a6.38,6.38,0,0,0-1.35,4.33q1.21,37.16,2.4,74.33,1.27,40.14,2.5,80.29-30-9-59.85-17.89a8.61,8.61,0,0,1-4.39-2.45c-7.61-8.57-15.32-17.05-23-25.58-.47-.52-1.42-.92-.69-2.4,27.9,14.66,55.69,29.48,84.53,43.79-2.27-12.9-4.4-25.14-6.57-37.36q-7.81-43.94-15.65-87.87c-2.23-12.55-4.25-25.14-6.69-37.65-.49-2.54.54-3.65,2-5.06,26.49-26.11,53.07-52.14,79.4-78.41,12.35-12.32,24.2-25.14,36-37.48-6.7-1-14.61-2.11-22.53-3.21q-30-4.19-60.05-8.33-30.42-4.23-60.83-8.48c-6.19-.86-12.37-1.76-18.58-2.46-2.58-.29-3.45-2-4.42-4Q344,114.12,308.25,42.8c-.64-1.27-1.3-2.54-2.17-4.24L287.34,76q-27.42,54.7-54.77,109.45a6.5,6.5,0,0,1-5.63,4.08c-18.58,2.47-37.13,5.13-55.7,7.73q-26.07,3.65-52.14,7.27-27,3.75-54.19,7.45c.26,1.73,1.7,2.42,2.69,3.39q56.78,56.07,113.67,112A6.52,6.52,0,0,1,183.4,334q-7.82,43.53-15.49,87.08C163.52,445.73,159.11,470.42,154.59,495.75Z" transform="translate(-58.86 -32.71)"/><path class="cls-1" d="M429.69,452c-16.23-8-31.83-15.63-47.41-23.31-1-.48-2.69-.69-2-2.37.87-2,2.21-.61,3.27-.09,13.82,6.76,27.62,13.54,42.08,20.64-1.72-8.36-3.27-16.17-4.93-24q-10.58-49.85-21.24-99.67c-.57-2.65.61-4.17,2.34-5.85q46.41-45.21,92.75-90.48c1-1,2.22-1.89,4.11-3.5-9.81-1.26-18.54-2.4-27.28-3.51q-27.5-3.5-55-7c-15.43-1.94-30.86-4-46.31-5.74a5.2,5.2,0,0,1-4.76-3.22q-28.89-57-58-113.82c-.36-.71-.75-1.41-1.15-2.17-1.62,1-2,2.8-2.72,4.27q-28.25,55.28-56.36,110.61c-1.35,2.66-2.77,4.05-6.12,4.45-30.77,3.72-61.5,7.77-92.25,11.67-11.44,1.46-22.9,2.79-34.35,4.17-.08,1.31.92,1.72,1.54,2.33q47.36,46.25,94.76,92.43c1.54,1.5,2.15,2.69,1.64,5.08q-12.07,56.24-23.82,112.55c-.73,3.48-1.41,7-2.12,10.46,1.59.56,2.49-.46,3.46-.93,12.52-6.1,25-12.27,37.49-18.41.71-.36,1.41-.75,2.14-1.07a1.54,1.54,0,0,1,2.24.92c.58,1.22-.49,1.33-1.11,1.64C214.72,436,198.8,443.85,182.22,452c1.93-9.19,3.72-17.74,5.52-26.27q10.81-51.21,21.71-102.41c.43-2-.38-2.93-1.55-4.06q-48.1-46.92-96.19-93.83c-1.22-1.19-2.52-2.3-4.5-4.1,6.38-.85,11.73-1.58,17.09-2.26q27.51-3.48,55-6.92l54.24-6.72a48,48,0,0,1,5.93-.73c2.78,0,4.24-1.29,5.46-3.71q16.66-33,33.53-66,12.3-24.1,24.66-48.18c.69-1.33.77-3.44,2.73-3.57,2.14-.13,2.14,2.13,2.79,3.39q29.08,56.88,58,113.83c1.41,2.79,3.09,3.94,6.3,4.3,18.1,2.09,36.16,4.53,54.24,6.8q30.07,3.79,60.17,7.5c5.38.67,10.74,1.39,15.83,2-5.82,6.14-11.38,12.37-17.33,18.21q-40.69,39.9-81.62,79.56a5.11,5.11,0,0,0-1.63,5.29q11,51.78,21.95,103.58C426.25,435.67,427.91,443.56,429.69,452Z" transform="translate(-58.86 -32.71)"/><path class="cls-1" d="M122.48,569.08a49.16,49.16,0,0,1-20.08-4.5c-1.74-.77-3.24-2.3-5.52-1.2-1,.49-1.77-.32-1.23-1.56,1.66-3.76,3.28-7.54,5-11.25.88-1.85,1.65-1.51,2.1.32a5.75,5.75,0,0,0,2.89,3.67c7.44,4.25,15.32,5.84,23.76,3.77a10.25,10.25,0,0,0,2.59-1c2.4-1.39,4.5-3.18,4.08-6.26s-3.28-3.6-5.73-4c-6.3-.93-12.63-1.58-18.94-2.47-8.21-1.15-13.07-5.8-14.13-13.36-1-7,3-13.89,10.1-16.89,8.85-3.72,17.84-3,27-.6,4.18,1.11,7.69,4.81,12.64,3.28,1.08-.33,1.28.83.7,1.93-1.8,3.4-3.46,6.87-5.22,10.3-.4.79-1.3,2-1.95.79-3.36-6.48-9.67-7.19-15.72-8.31a21,21,0,0,0-11.75,1.28c-2.46,1-4.44,2.63-4.13,5.66s2.75,3.62,5.18,4c6.44.85,13,1.34,19.33,2.51,12.34,2.26,18.38,13.26,13,23.28-3.66,6.84-10.25,8.87-17.21,10.09A63.26,63.26,0,0,1,122.48,569.08Z" transform="translate(-58.86 -32.71)"/><path class="cls-1" d="M476.46,567.16c3.17-1.67,2.9-4.4,2.89-7.17-.06-13.59,0-27.18,0-40.77,0-1.3.37-2.72-.76-3.78-.72-.67-2.31-1-1.5-2.31.59-1,1.95-.43,3-.43,14.66,0,29.31,0,44-.05,1.26,0,2.7.55,3.73-.74.52-.66.67-2,1.92-1.41.79.39.48,1.44.49,2.21,0,3.46,0,6.93,0,10.39,0,.64.06,1.38-.86,1.52-.62.1-.92-.23-1.16-.77-.74-1.69-2.25-1.58-3.74-1.58-9.86,0-19.72.12-29.58-.06-2.79-.06-3.22.95-3.22,3.41,0,9.34-.06,9.34,9.28,9.34,3.74,0,7.47,0,11.2,0a5.87,5.87,0,0,0,3.1-.47c.87-.49.94-2.39,2.3-1.69s.54,2.16.57,3.27c.09,2.93,0,5.86,0,8.79,0,1.47-.84,2.18-1.78.81-1.23-1.8-2.84-1.7-4.57-1.7-5.72,0-11.46.1-17.18-.05-2.31-.06-3.05.68-2.91,2.94.23,3.7-1.14,8.47.69,10.83,2,2.55,7,.73,10.63.82,6.93.15,13.86.09,20.79,0,2.12,0,4.51.76,5.84-2.11.48-1,1.65-.62,1.66.76,0,4,.05,8,0,12,0,1.3-1.18,1.81-1.78.78-1.52-2.62-3.88-1.9-6-1.91-14.12,0-28.25,0-42.37,0h-3.93Z" transform="translate(-58.86 -32.71)"/><path class="cls-1" d="M469.19,520c-2.59,3.88-4.89,7.29-7.15,10.72-1,1.49-1.92,1.81-2.17-.27-.29-2.38-2-3.33-3.67-4.35a29.6,29.6,0,0,0-23.39-3.56c-9.16,2.4-14.25,10-13.56,19.88.59,8.62,7.43,15.5,16.64,16.57a30.84,30.84,0,0,0,20.31-4.18c1.32-.82,2.8-1.54,3.41-3.21.3-.8-.27-2.1,1-2.35,1.46-.29,1.55,1.2,2.1,2,1.85,2.6,3.59,5.28,5.37,7.93.65,1,.83,2.6-.62,1.91-2.75-1.29-4.34.4-6.13,1.5a41.46,41.46,0,0,1-35.24,4.55C412.66,563,405.53,551.79,406.58,537c.85-11.91,10.7-22.06,23.35-24.39a43.38,43.38,0,0,1,31.42,5.62C465,520.5,465.07,520.44,469.19,520Z" transform="translate(-58.86 -32.71)"/><path class="cls-1" d="M184.13,567.83H166.31c3.67-2.26,3.22-5.22,3.22-8.07,0-8.4-.09-16.8,0-25.2,0-2.48-.45-3.71-3.27-3.43a54.91,54.91,0,0,1-7.59,0c-2.37-.1-4.45.25-6.15,2.54V519.54c2,3.46,5,3.15,7.95,3.13,10.14-.08,20.27,0,30.4,0,2.35,0,5,.65,6.69-2.19v13.44c-4.7-4.91-10.37-2.09-15.51-2.76-1.72-.23-1.32,1.28-1.33,2.24,0,9.87.1,19.73-.09,29.6C180.63,565.21,182.22,566,184.13,567.83Z" transform="translate(-58.86 -32.71)"/><path class="cls-1" d="M398.21,568c-5.39,0-10.78,0-16.16,0-1.31,0-1.74-1-.5-1.68,2.16-1.17,1.8-3,1.8-4.87q0-21,0-42c0-1.29.37-2.68-.57-3.85-.61-.76-2.36-.89-1.75-2.25s2.12-.59,3.21-.62c4-.09,8-.06,12,0,.71,0,1.69-.4,2,.64.26.78-.32,1.24-.94,1.53-1.86.88-1.63,2.56-1.63,4.14,0,14.26,0,28.52,0,42.78,0,2.32.44,4.18,3,5.07Z" transform="translate(-58.86 -32.71)"/><path class="cls-1" d="M311.66,567c2.58-1.28,2.84-3.45,2.83-6-.09-13.71,0-27.43-.06-41.15,0-1.31.23-2.63-.41-3.92-.52-1-2.7-1.15-2-2.57s2.66-.65,4-.64c10.92.12,21.83-.4,32.75.35,16.32,1.11,23.77,12.74,23.8,27.45,0,17.15-9.58,27-26.76,27.39-10.51.22-21,.08-31.56.08A2.56,2.56,0,0,1,311.66,567Zm15-11.36c-.06,2.2.51,3.07,2.85,3,4.38-.18,8.78,0,13.16-.09,11.94-.34,17.32-5.92,17.33-17.92a31.79,31.79,0,0,0-.54-5.14c-1.15-7.34-4.88-11.36-12.21-12.68-6.18-1.11-12.47-.23-18.7-.5-2.17-.09-1.85,1.33-1.85,2.64v15.16C326.69,545.24,326.79,550.43,326.65,555.61Z" transform="translate(-58.86 -32.71)"/><path class="cls-1" d="M306.2,289a30.28,30.28,0,0,1-11.65-2.45L272,274.58c-.82-.79-2.32-2.47-2.07-4.35.29-2.14,2.7-3.36,4-4.08,7.32-4,14.61-8.06,22-11.85a21.62,21.62,0,0,1,20.65.08c7.06,3.64,14,7.44,21,11.27,2.16,1.18,4.85,2.2,4.75,5.3-.08,2.82-2.73,3.54-4.62,4.81l-16.63,9.41A30.55,30.55,0,0,1,306.2,289Zm5.64-18.07c.1-2.11-2.88-3-5.26-3.06-2.65-.09-6,.55-6.07,3.05-.12,2.76,3.25,2.67,5.63,2.67S311.72,273.69,311.84,270.9Z" transform="translate(-58.86 -32.71)"/><path class="cls-1" d="M341.6,275.52a6.41,6.41,0,0,1,1-.24c.25,0,2.37-.31,3.6.79a3.89,3.89,0,0,1,1.19,2.66,155.19,155.19,0,0,1-.24,31.08c-.46,4.44-3.64,7.76-7.44,9.9q-12.27,6.92-24.85,13.29c-4.85,2.47-7.86.65-8-4.7-.19-7.32,0-14.64-.13-22-.18-8.69,2.22-10.54,3-11.7a19.16,19.16,0,0,1,8.67-7ZM336,287.9c.17,2.14.39,4.83,3.11,4.65,2.89-.19,3.3-3.33,3.26-5.44s-.76-4.41-3-5.41C336.4,282.92,335.81,285.22,336,287.9Zm-21.08,29c-2.89,0-3.4,3.43-3.31,5.53.09,1.89.36,5.25,3.19,5.23,3.14,0,3-3.14,3.26-5.35C317.84,319.92,317.65,316.93,315,316.94Z" transform="translate(-58.86 -32.71)"/><path class="cls-1" d="M293.54,287.18c1.22.77,2.46,1.51,3.66,2.31,4.79,3.21,7.94,7.47,8,13.44.11,8.65.19,17.3,0,25.95-.08,4.7-3.07,6.57-7.28,4.42-8.83-4.53-17.57-9.23-26.17-14.18-4.82-2.77-7-7.45-7.3-13a250.75,250.75,0,0,1-.08-25.13c.27-5.11,2.45-6.49,7.73-5.11Zm.11,35.06c0,2.27.23,5.13,3.09,5.07,2.65-.05,3.23-3.16,3.26-5.14s-.53-4.7-3.23-5.65C293.63,317.41,293.64,319.9,293.65,322.24Zm-9.89-12.17c2.9,0,3.35-3.38,3.3-5.44s-.34-5.5-3.32-5.36-2.92,3.22-3.07,5.47C280.81,307.19,281.15,310.07,283.76,310.07ZM272.6,281.64c-3-.07-3.4,3.28-3.38,5.35s.48,5.28,3.11,5.33c2.94.05,3.2-2.94,3.28-5.58C275.38,284.68,275.43,281.71,272.6,281.64Z" transform="translate(-58.86 -32.71)"/><path class="cls-1" d="M254.41,523.51c.84-1.23,1.86-.86,2.72-.85,10.93.13,21.86-.4,32.78.31,8.08.52,12.42,4.17,13.32,11.08.93,7.16-2.41,11.93-10.16,14.48-.58.19-1.19.31-2.3.59,5.19,6.27,8.16,13.72,15.88,18.51H285.87c3.8-2.09,2.52-4,.95-6.15-2.37-3.2-4.61-6.51-6.82-9.82a4.21,4.21,0,0,0-3.85-2.18c-8-.13-8.19-.2-7.87,7.72.12,3.13-2,6.9,2,9.41.82.52,0,1.38-1,1.38-4.53,0-9.06,0-13.59,0-1.38,0-1.7-1-.5-1.63,2.21-1.18,1.71-3.11,1.72-4.9,0-10.13,0-20.26,0-30.38C257,528.16,257.27,525.29,254.41,523.51ZM278,540.71a91.94,91.94,0,0,0,9.54-.07c3.48-.35,5-3.09,3.95-6.25-.9-2.7-3.31-3-5.47-3.06-5.3-.23-10.61-.07-15.92-.18-1.63,0-1.89.67-2,2.12-.61,7.69-.65,7.69,7.12,7.69H278Z" transform="translate(-58.86 -32.71)"/><path class="cls-1" d="M232.38,567.74c1.71-1.65,3.24-3.12,2-5.24-1.42-2.35-1.41-6.14-5.88-5.81a81.35,81.35,0,0,1-14,0c-4.23-.41-4.46,2.75-5.82,5.14-1.45,2.54-.16,4.07,3,5.84H193.85c5.21-5.34,7.24-12.36,10.57-18.64,3.17-6,6-12.12,9.06-18.16,1.34-2.64,2.28-5.16-1.82-7.79h19.21c-4.51,3.56-1.56,6.76.12,10,5,9.63,10.19,19.19,15.14,28.86,1.16,2.25,2.89,3.85,5.39,5.87ZM214.45,550h13.39c-2.3-4.55-4.41-8.72-6.92-13.7Z" transform="translate(-58.86 -32.71)"/></svg>